<svg width="52" height="30" viewBox="0 0 52 30" fill="none" xmlns="http://www.w3.org/2000/svg">
<g clip-path="url(#clip0_257_2723)">
<path d="M52.0002 21.1677C51.9624 21.3236 51.8624 21.3491 51.7205 21.3491C50.9556 21.3451 50.1907 21.3451 49.4259 21.3491C49.2853 21.3491 49.2124 21.3047 49.138 21.1757C48.8218 20.6262 48.4826 20.0887 48.1543 19.5445C47.984 19.2623 47.8218 18.9747 47.6502 18.6925C47.5637 18.5501 47.4759 18.4023 47.3624 18.2827C47.3097 18.229 47.1921 18.2196 47.1029 18.2196C46.2313 18.2169 45.361 18.2222 44.4894 18.2222C43.6367 18.2222 42.784 18.2182 41.9326 18.2142C41.5759 18.2128 41.484 18.0892 41.638 17.7627C41.7772 17.4657 41.957 17.1876 42.1232 16.904C42.2394 16.7052 42.3826 16.5197 42.4759 16.3128C42.5543 16.1381 42.6772 16.1139 42.8353 16.1139C43.7502 16.1139 44.6651 16.1112 45.5799 16.1139C46.0516 16.1166 46.0813 16.0857 45.8529 15.6907C45.4313 14.9651 44.9934 14.2475 44.5624 13.5273C44.3907 13.2397 44.2205 12.9495 44.0475 12.6619C43.9799 12.5504 43.9137 12.4375 43.8299 12.3394C43.8083 12.3139 43.6948 12.3206 43.6705 12.3502C43.5691 12.4738 43.4786 12.6095 43.3961 12.7466C43.107 13.2249 42.8218 13.7046 42.5367 14.1857C42.2178 14.7245 41.9002 15.2647 41.5799 15.8022C41.2407 16.3733 40.8961 16.9403 40.5583 17.5114C40.1772 18.1577 39.8029 18.8068 39.4218 19.4531C39.1691 19.8804 38.9083 20.3037 38.6529 20.7296C38.5597 20.8842 38.4799 21.0481 38.3732 21.1919C38.3218 21.2604 38.2232 21.337 38.1461 21.3383C37.3948 21.3491 36.6421 21.3477 35.8894 21.3437C35.6961 21.3437 35.5421 21.0588 35.6394 20.8976C36.2124 19.9449 36.7867 18.9949 37.3583 18.0408C37.7826 17.3313 38.1988 16.6178 38.6245 15.9097C39.0988 15.1223 39.5813 14.3389 40.057 13.5528C40.484 12.8447 40.9042 12.1325 41.3326 11.4257C41.7813 10.6866 42.2286 9.94893 42.6907 9.21928C42.9691 8.77989 43.3772 8.54339 43.911 8.56758C44.2326 8.58236 44.534 8.6697 44.7272 8.94919C45.0205 9.37247 45.3097 9.79977 45.584 10.2351C45.8786 10.7028 46.1543 11.1811 46.4394 11.6555C46.7718 12.2091 47.1029 12.764 47.4394 13.3163C47.8191 13.9425 48.2056 14.5633 48.5853 15.1908C48.9556 15.8022 49.3178 16.4176 49.6867 17.029C50.0205 17.5813 50.361 18.1295 50.6948 18.6831C50.9583 19.1185 51.2151 19.5592 51.4745 19.996C51.6299 20.258 51.7826 20.5214 51.9475 20.7767" fill="#181E35"/>
<path d="M2.52432 12.8876C2.50405 13.0247 2.47703 13.1255 2.47703 13.2249C2.47568 15.7847 2.47703 18.3458 2.47703 20.9056C2.47703 21.2429 2.35405 21.3746 2.00811 21.3786C1.45 21.384 0.891892 21.3813 0.335135 21.3759C0.0932433 21.3732 0.0202703 21.2886 0.0202703 21.0373C0.0121622 18.5823 0.00135135 16.1287 0 13.6737C0 12.459 0.0148649 11.2442 0.0243243 10.0295C0.0283784 9.58205 0.140541 9.17222 0.531081 8.90347C0.886487 8.66026 1.26081 8.54066 1.7027 8.72476C2.0027 8.84972 2.22973 9.04725 2.45 9.26493C3.57297 10.3775 4.69054 11.4942 5.81351 12.6068C6.83649 13.6199 7.86351 14.6291 8.89054 15.6382C9.15135 15.8949 9.41622 16.1488 9.68919 16.4149C9.7527 16.3558 9.8027 16.3249 9.82703 16.2819C10 15.9742 10.1662 15.6624 10.3351 15.352C10.3554 15.3144 10.3703 15.2727 10.3986 15.2405C10.5419 15.0739 10.6108 14.8898 10.6095 14.664C10.6027 12.8325 10.6041 11.001 10.6041 9.16953C10.6041 8.83628 10.7959 8.69116 11.1338 8.7046C11.6027 8.72475 12.0743 8.70997 12.5432 8.70729C13.0054 8.7046 13.0432 8.81747 13.0703 9.21925C13.0959 9.59683 13.0743 9.97845 13.0757 10.3574C13.0757 10.481 13.0581 10.563 13.0797 10.6852C13.0797 10.6852 13.0324 11.0615 13.0797 11.0884C13.1 11.1005 13.3 10.829 13.3297 10.7927C13.9986 9.97442 14.6324 9.12653 15.3378 8.34045C16.2189 7.35819 17.1365 6.40414 18.0811 5.481C18.7108 4.86558 19.3987 4.30256 20.0932 3.757C20.8108 3.19264 21.5568 2.66187 22.3135 2.14857C22.7595 1.84623 23.2419 1.59495 23.7203 1.34367C24.1865 1.09912 24.6581 0.861277 25.1459 0.666437C25.5595 0.501159 25.9959 0.388286 26.4284 0.275413C26.8014 0.177321 27.1797 0.0872916 27.5622 0.0362301C28.2459 -0.0537995 28.9149 0.0214491 29.5757 0.247195C30.3311 0.50519 30.8689 0.999681 31.273 1.66079C31.5892 2.17813 31.7027 2.76265 31.827 3.34582C31.9541 3.93706 31.9743 4.53099 31.9378 5.12626C31.9122 5.55894 31.823 5.98624 31.7541 6.41624C31.7081 6.70917 31.6581 7.00344 31.5946 7.29369C31.5405 7.54093 31.4622 7.7828 31.3959 8.02736C31.3716 8.11739 31.3541 8.20877 31.327 8.29745C31.2446 8.56216 31.1595 8.82688 31.0757 9.09025C30.9987 9.33212 30.9365 9.57936 30.8432 9.81452C30.6176 10.3923 30.3851 10.9688 30.1432 11.5412C29.9324 12.0411 29.7176 12.5409 29.4811 13.03C29.2811 13.4412 29.0487 13.8363 28.8284 14.2381C28.6068 14.6425 28.3932 15.0524 28.1581 15.4488C27.8973 15.8882 27.623 16.3208 27.3419 16.7468C26.9676 17.3138 26.5892 17.8796 26.1946 18.4332C25.8459 18.9223 25.4811 19.3993 25.1095 19.8696C24.7446 20.3319 24.3635 20.782 23.9878 21.2348C23.2108 22.1687 22.3919 23.0636 21.5054 23.8954C20.7703 24.5847 20.0297 25.27 19.2676 25.9325C18.7838 26.3531 18.273 26.7428 17.7486 27.1136C17.2568 27.4617 16.7284 27.7546 16.227 28.0892C15.6108 28.5017 14.9378 28.804 14.273 29.1238C13.4635 29.5135 12.6108 29.7648 11.7365 29.9381C11.3851 30.008 11.0162 29.9905 10.6541 30.0026C10.3595 30.012 10.0811 29.9086 9.7973 29.8629C9.38919 29.797 9.04595 29.6277 8.7027 29.4316C8.24054 29.1668 7.90405 28.7812 7.64865 28.323C7.38243 27.8446 7.26081 27.3206 7.12162 26.7952C6.94054 26.1126 7.00946 25.4273 7.0027 24.7446C7 24.4531 7.09459 24.1601 7.1446 23.8672C7.21892 23.4278 7.25946 22.979 7.37432 22.5503C7.59054 21.7374 7.83784 20.9312 8.09595 20.1303C8.20541 19.7917 8.38919 19.4772 8.50811 19.1413C8.54054 19.0513 8.49595 18.886 8.42568 18.8134C7.58108 17.9521 6.72162 17.1042 5.87162 16.2469C5.25405 15.6248 4.6473 14.9932 4.03243 14.3697C3.57297 13.9035 3.10946 13.4426 2.64595 12.9803C2.62432 12.9588 2.59595 12.9441 2.52162 12.8916L2.52432 12.8876ZM23.9392 8.70997C24.2838 8.71669 24.6284 8.72072 24.973 8.70729C25.2108 8.69788 25.3459 8.81613 25.45 9.00291C25.573 9.22462 25.6946 9.44902 25.8243 9.66805C26.3189 10.5079 26.8135 11.3477 27.3122 12.1848C27.4216 12.3676 27.5446 12.5436 27.6878 12.764C27.7892 12.5839 27.8689 12.4711 27.9189 12.3461C28.0946 11.9107 28.2689 11.4754 28.4243 11.0333C28.5811 10.5898 28.7203 10.1397 28.8568 9.68955C28.9257 9.45977 28.9743 9.22193 29.0243 8.98678C29.1108 8.57426 29.2216 8.16308 29.2649 7.74518C29.3054 7.34475 29.2473 6.93491 29.2797 6.53314C29.3351 5.84918 29.1378 5.2257 28.85 4.62908C28.7189 4.35899 28.5459 4.0889 28.3297 3.88466C28.1081 3.67369 27.8162 3.52991 27.5432 3.37807C27.4054 3.30148 27.2432 3.24236 27.0865 3.23026C26.6973 3.2007 26.3054 3.20205 25.9149 3.18995C25.3 3.17248 24.7257 3.37404 24.1689 3.58098C23.5824 3.79866 23.0297 4.10772 22.4676 4.38856C21.7068 4.76883 21.0284 5.27676 20.3514 5.78334C19.8987 6.1233 19.4541 6.47939 19.0365 6.86101C18.3568 7.48181 17.6838 8.11202 17.0432 8.77044C16.5419 9.28643 16.0824 9.84408 15.623 10.3977C15.177 10.9352 14.7419 11.4821 14.323 12.0397C13.9743 12.5033 13.6554 12.9897 13.323 13.4668C13.1581 13.7046 13.1135 13.972 13.1135 14.2542C13.1135 14.6855 13.1027 15.1169 13.0973 15.5468C13.0973 15.5778 13.0946 15.6087 13.0946 15.6409C13.0892 17.0491 13.0919 18.456 13.073 19.8642C13.0676 20.2674 13.0703 20.6758 12.8041 21.0387C12.3932 21.5976 11.6973 21.6621 11.1676 21.3773C10.8514 21.2066 10.5973 20.9217 10.3135 20.692C10.223 20.6194 10.1257 20.5549 10.0243 20.4823C9.94189 20.8908 9.85946 21.255 9.7973 21.6232C9.7446 21.9336 9.69054 22.2467 9.67838 22.5597C9.66216 22.9884 9.68378 23.4184 9.69189 23.8484C9.6946 23.9962 9.67568 24.1494 9.70946 24.2905C9.77432 24.5606 9.86216 24.8253 9.95405 25.0873C10.1081 25.5294 10.3622 25.9083 10.7351 26.2012C11.477 26.7844 12.3338 26.904 13.2392 26.7911C13.827 26.7186 14.4014 26.5735 14.9459 26.3383C15.4432 26.1233 15.9527 25.9244 16.4203 25.6557C17.0351 25.3036 17.6324 24.9153 18.2054 24.4987C18.8689 24.015 19.5243 23.5138 20.1338 22.9656C21.0568 22.1365 21.9487 21.2698 22.7351 20.3077C23.3919 19.5028 24.0459 18.6952 24.6784 17.8701C25.0743 17.3528 25.4324 16.8073 25.7946 16.2657C25.9662 16.0091 26.1108 15.735 26.2622 15.4756C26.2041 15.4098 26.1554 15.3695 26.1257 15.3184C25.9932 15.0873 25.8743 14.8481 25.7378 14.6197C25.3068 13.8994 24.8703 13.1819 24.4351 12.463C24.1095 11.9255 23.7784 11.392 23.4595 10.8519C23.1149 10.2687 22.7811 9.6788 22.4473 9.0889C22.3649 8.94378 22.4459 8.80941 22.6135 8.78388C22.65 8.7785 22.6892 8.78119 22.7257 8.77582" fill="#181E35"/>
<path d="M28.9122 14.8159C29.0162 14.9879 29.1243 15.1572 29.2243 15.3319C29.5108 15.8318 29.7919 16.3343 30.0784 16.8355C30.2297 17.1002 30.3797 17.365 30.5406 17.6216C30.6541 17.8017 30.696 17.8111 30.8257 17.6391C30.9676 17.4523 31.073 17.24 31.1933 17.0384C31.5865 16.376 31.9797 15.7149 32.3703 15.0511C32.6919 14.5055 33.0081 13.9559 33.3325 13.4104C33.8703 12.502 34.4122 11.5963 34.9514 10.6893C35.3068 10.0914 35.6595 9.49072 36.0108 8.89008C36.0865 8.76108 36.1919 8.71271 36.3365 8.71405C37.0014 8.71539 37.6649 8.71002 38.3297 8.71539C38.5162 8.71674 38.7162 8.72749 38.8149 8.92905C38.8365 8.97204 38.8379 9.04729 38.8149 9.08895C38.45 9.70975 38.0797 10.3265 37.7095 10.9433C37.4487 11.3787 37.1879 11.8154 36.9243 12.2494C36.6824 12.6458 36.4338 13.0382 36.1933 13.4359C35.9189 13.8914 35.6541 14.3537 35.3797 14.8092C35.1054 15.2661 34.8216 15.7162 34.5446 16.1717C34.2811 16.6057 34.0203 17.0411 33.7581 17.4765C33.4257 18.0288 33.0919 18.5797 32.7581 19.1319C32.427 19.6788 32.1068 20.2311 31.7622 20.7686C31.4014 21.3316 30.9716 21.5869 30.3189 21.47C30.0933 21.4297 29.85 21.2658 29.6973 21.0884C29.4324 20.7794 29.2243 20.4206 29.0081 20.0726C28.6162 19.4383 28.2379 18.7947 27.8514 18.1577C27.7135 17.9293 27.5554 17.7116 27.4297 17.4765C27.3879 17.3985 27.3811 17.2615 27.4216 17.1862C27.596 16.8651 27.7946 16.5574 27.9825 16.2429C28.1635 15.9406 28.3406 15.6356 28.5216 15.3346C28.6257 15.1612 28.7338 14.9919 28.8406 14.8213C28.8649 14.8213 28.8879 14.8186 28.9122 14.8186V14.8159Z" fill="#181E35"/>
<path d="M1.79605 21.462H0.291992C0.291992 21.4526 0.291992 21.4432 0.291992 21.4337H1.7947C1.7947 21.4432 1.7947 21.4526 1.7947 21.462H1.79605Z" fill="white"/>
</g>
<defs>
<clipPath id="clip0_257_2723">
<rect width="52" height="30" fill="white"/>
</clipPath>
</defs>
</svg>
