<?xml version="1.0" encoding="UTF-8"?>
<svg id="Capa_2" data-name="Capa 2" xmlns="http://www.w3.org/2000/svg" viewBox="0 0 384.8 223.26">
  <g id="Capa_1-2" data-name="Capa 1">
    <path d="m384.8,157.53c-.28,1.16-1.02,1.35-2.07,1.35-5.66-.03-11.32-.03-16.98,0-1.04,0-1.58-.33-2.13-1.29-2.34-4.09-4.85-8.09-7.28-12.14-1.26-2.1-2.46-4.24-3.73-6.34-.64-1.06-1.29-2.16-2.13-3.05-.39-.4-1.26-.47-1.92-.47-6.45-.02-12.89.02-19.34.02-6.31,0-12.62-.03-18.92-.06-2.64-.01-3.32-.93-2.18-3.36,1.03-2.21,2.36-4.28,3.59-6.39.86-1.48,1.92-2.86,2.61-4.4.58-1.3,1.49-1.48,2.66-1.48,6.77,0,13.54-.02,20.31,0,3.49.02,3.71-.21,2.02-3.15-3.12-5.4-6.36-10.74-9.55-16.1-1.27-2.14-2.53-4.3-3.81-6.44-.5-.83-.99-1.67-1.61-2.4-.16-.19-1-.14-1.18.08-.75.92-1.42,1.93-2.03,2.95-2.14,3.56-4.25,7.13-6.36,10.71-2.36,4.01-4.71,8.03-7.08,12.03-2.51,4.25-5.06,8.47-7.56,12.72-2.82,4.81-5.59,9.64-8.41,14.45-1.87,3.18-3.8,6.33-5.69,9.5-.69,1.15-1.28,2.37-2.07,3.44-.38.51-1.11,1.08-1.68,1.09-5.56.08-11.13.07-16.7.04-1.43,0-2.57-2.12-1.85-3.32,4.24-7.09,8.49-14.16,12.72-21.26,3.14-5.28,6.22-10.59,9.37-15.86,3.51-5.86,7.08-11.69,10.6-17.54,3.16-5.27,6.27-10.57,9.44-15.83,3.32-5.5,6.63-10.99,10.05-16.42,2.06-3.27,5.08-5.03,9.03-4.85,2.38.11,4.61.76,6.04,2.84,2.17,3.15,4.31,6.33,6.34,9.57,2.18,3.48,4.22,7.04,6.33,10.57,2.46,4.12,4.91,8.25,7.4,12.36,2.81,4.66,5.67,9.28,8.48,13.95,2.74,4.55,5.42,9.13,8.15,13.68,2.47,4.11,4.99,8.19,7.46,12.31,1.95,3.24,3.85,6.52,5.77,9.77,1.15,1.95,2.28,3.91,3.5,5.81"/>
    <path d="m18.68,95.91c-.15,1.02-.35,1.77-.35,2.51-.01,19.05,0,38.11,0,57.16,0,2.51-.91,3.49-3.47,3.52-4.13.04-8.26.02-12.38-.02-1.79-.02-2.33-.65-2.33-2.52C.09,138.29.01,120.03,0,101.76c0-9.04.11-18.08.18-27.12.03-3.33.86-6.38,3.75-8.38,2.63-1.81,5.4-2.7,8.67-1.33,2.22.93,3.9,2.4,5.53,4.02,8.31,8.28,16.58,16.59,24.89,24.87,7.57,7.54,15.17,15.05,22.77,22.56,1.93,1.91,3.89,3.8,5.91,5.78.47-.44.84-.67,1.02-.99,1.28-2.29,2.51-4.61,3.76-6.92.15-.28.26-.59.47-.83,1.06-1.24,1.57-2.61,1.56-4.29-.05-13.63-.04-27.26-.04-40.89,0-2.48,1.42-3.56,3.92-3.46,3.47.15,6.96.04,10.43.02,3.42-.02,3.7.82,3.9,3.81.19,2.81.03,5.65.04,8.47,0,.92-.13,1.53.03,2.44,0,0-.35,2.8,0,3,.15.09,1.63-1.93,1.85-2.2,4.95-6.09,9.64-12.4,14.86-18.25,6.52-7.31,13.31-14.41,20.3-21.28,4.66-4.58,9.75-8.77,14.89-12.83,5.31-4.2,10.83-8.15,16.43-11.97,3.3-2.25,6.87-4.12,10.41-5.99,3.45-1.82,6.94-3.59,10.55-5.04,3.06-1.23,6.29-2.07,9.49-2.91,2.76-.73,5.56-1.4,8.39-1.78,5.06-.67,10.01-.11,14.9,1.57,5.59,1.92,9.57,5.6,12.56,10.52,2.34,3.85,3.18,8.2,4.1,12.54.94,4.4,1.09,8.82.82,13.25-.19,3.22-.85,6.4-1.36,9.6-.34,2.18-.71,4.37-1.18,6.53-.4,1.84-.98,3.64-1.47,5.46-.18.67-.31,1.35-.51,2.01-.61,1.97-1.24,3.94-1.86,5.9-.57,1.8-1.03,3.64-1.72,5.39-1.67,4.3-3.39,8.59-5.18,12.85-1.56,3.72-3.15,7.44-4.9,11.08-1.48,3.06-3.2,6-4.83,8.99-1.64,3.01-3.22,6.06-4.96,9.01-1.93,3.27-3.96,6.49-6.04,9.66-2.77,4.22-5.57,8.43-8.49,12.55-2.58,3.64-5.28,7.19-8.03,10.69-2.7,3.44-5.52,6.79-8.3,10.16-5.75,6.95-11.81,13.61-18.37,19.8-5.44,5.13-10.92,10.23-16.56,15.16-3.58,3.13-7.36,6.03-11.24,8.79-3.64,2.59-7.55,4.77-11.26,7.26-4.56,3.07-9.54,5.32-14.46,7.7-5.99,2.9-12.3,4.77-18.77,6.06-2.6.52-5.33.39-8.01.48-2.18.07-4.24-.7-6.34-1.04-3.02-.49-5.56-1.75-8.1-3.21-3.42-1.97-5.91-4.84-7.8-8.25-1.97-3.56-2.87-7.46-3.9-11.37-1.34-5.08-.83-10.18-.88-15.26-.02-2.17.68-4.35,1.05-6.53.55-3.27.85-6.61,1.7-9.8,1.6-6.05,3.43-12.05,5.34-18.01.81-2.52,2.17-4.86,3.05-7.36.24-.67-.09-1.9-.61-2.44-6.25-6.41-12.61-12.72-18.9-19.1-4.57-4.63-9.06-9.33-13.61-13.97-3.4-3.47-6.83-6.9-10.26-10.34-.16-.16-.37-.27-.92-.66Zm158.47-31.09c2.55.05,5.1.08,7.65-.02,1.76-.07,2.76.81,3.53,2.2.91,1.65,1.81,3.32,2.77,4.95,3.66,6.25,7.32,12.5,11.01,18.73.81,1.36,1.72,2.67,2.78,4.31.75-1.34,1.34-2.18,1.71-3.11,1.3-3.24,2.59-6.48,3.74-9.77,1.16-3.3,2.19-6.65,3.2-10,.51-1.71.87-3.48,1.24-5.23.64-3.07,1.46-6.13,1.78-9.24.3-2.98-.13-6.03.11-9.02.41-5.09-1.05-9.73-3.18-14.17-.97-2.01-2.25-4.02-3.85-5.54-1.64-1.57-3.8-2.64-5.82-3.77-1.02-.57-2.22-1.01-3.38-1.1-2.88-.22-5.78-.21-8.67-.3-4.55-.13-8.8,1.37-12.92,2.91-4.34,1.62-8.43,3.92-12.59,6.01-5.63,2.83-10.65,6.61-15.66,10.38-3.35,2.53-6.64,5.18-9.73,8.02-5.03,4.62-10.01,9.31-14.75,14.21-3.71,3.84-7.11,7.99-10.51,12.11-3.3,4-6.52,8.07-9.62,12.22-2.58,3.45-4.94,7.07-7.4,10.62-1.22,1.77-1.55,3.76-1.55,5.86,0,3.21-.08,6.42-.12,9.62,0,.23-.02.46-.02.7-.04,10.48-.02,20.95-.16,31.43-.04,3-.02,6.04-1.99,8.74-3.04,4.16-8.19,4.64-12.11,2.52-2.34-1.27-4.22-3.39-6.32-5.1-.67-.54-1.39-1.02-2.14-1.56-.61,3.04-1.22,5.75-1.68,8.49-.39,2.31-.79,4.64-.88,6.97-.12,3.19.04,6.39.1,9.59.02,1.1-.12,2.24.13,3.29.48,2.01,1.13,3.98,1.81,5.93,1.14,3.29,3.02,6.11,5.78,8.29,5.49,4.34,11.83,5.23,18.53,4.39,4.35-.54,8.6-1.62,12.63-3.37,3.68-1.6,7.45-3.08,10.91-5.08,4.55-2.62,8.97-5.51,13.21-8.61,4.91-3.6,9.76-7.33,14.27-11.41,6.83-6.17,13.43-12.62,19.25-19.78,4.86-5.99,9.7-12,14.38-18.14,2.93-3.85,5.58-7.91,8.26-11.94,1.27-1.91,2.34-3.95,3.46-5.88-.43-.49-.79-.79-1.01-1.17-.98-1.72-1.86-3.5-2.87-5.2-3.19-5.36-6.42-10.7-9.64-16.05-2.41-4-4.86-7.97-7.22-11.99-2.55-4.34-5.02-8.73-7.49-13.12-.61-1.08-.01-2.08,1.23-2.27.27-.04.56-.02.83-.06"/>
    <path d="m213.95,110.26c.77,1.28,1.57,2.54,2.31,3.84,2.12,3.72,4.2,7.46,6.32,11.19,1.12,1.97,2.23,3.94,3.42,5.85.84,1.34,1.15,1.41,2.11.13,1.05-1.39,1.83-2.97,2.72-4.47,2.91-4.93,5.82-9.85,8.71-14.79,2.38-4.06,4.72-8.15,7.12-12.21,3.98-6.76,7.99-13.5,11.98-20.25,2.63-4.45,5.24-8.92,7.84-13.39.56-.96,1.34-1.32,2.41-1.31,4.92.01,9.83-.03,14.75.01,1.38.01,2.86.09,3.59,1.59.16.32.17.88,0,1.19-2.7,4.62-5.44,9.21-8.18,13.8-1.93,3.24-3.86,6.49-5.81,9.72-1.79,2.95-3.63,5.87-5.41,8.83-2.03,3.39-3.99,6.83-6.02,10.22-2.03,3.4-4.13,6.75-6.18,10.14-1.95,3.23-3.88,6.47-5.82,9.71-2.46,4.11-4.93,8.21-7.4,12.32-2.45,4.07-4.82,8.18-7.37,12.18-2.67,4.19-5.85,6.09-10.68,5.22-1.67-.3-3.47-1.52-4.6-2.84-1.96-2.3-3.5-4.97-5.1-7.56-2.9-4.72-5.7-9.51-8.56-14.25-1.02-1.7-2.19-3.32-3.12-5.07-.31-.58-.36-1.6-.06-2.16,1.29-2.39,2.76-4.68,4.15-7.02,1.34-2.25,2.65-4.52,3.99-6.76.77-1.29,1.57-2.55,2.36-3.82.18,0,.35-.02.53-.02Z"/>
    <path d="m299.19,182.35c-.53,2.13-1.04,4.22-1.57,6.3-.32,1.25-.67,2.49-1.01,3.73-.41,1.51-1.63.93-2.54.88-1.09-.06-.79-.98-.63-1.61.54-2.14,1.14-4.27,1.72-6.39.45-1.65.94-3.28,1.37-4.93.52-2.01.89-4.08,1.55-6.04.29-.87,1.03-1.94,1.8-2.2,1-.33,1.76.58,2.22,1.63,1.83,4.17,3.73,8.32,5.62,12.47.11.24.29.46.6.95.59-.75,1.23-1.31,1.54-2.01.94-2.1,1.72-4.28,2.61-6.4.76-1.83,1.49-3.68,2.43-5.41.34-.63,1.33-1.41,1.87-1.31.68.13,1.54.99,1.75,1.7.97,3.27,1.73,6.6,2.6,9.9.74,2.81,1.49,5.61,2.32,8.4.29.99-.08,1.25-.95,1.33-1.96.17-2.13.12-2.68-1.87-.69-2.48-1.24-5.01-1.92-7.49-.32-1.15-.74-2.28-1.23-3.37-.42-.92-1.03-.49-1.34.08-.78,1.46-1.48,2.97-2.16,4.48-1.08,2.4-2.05,4.85-3.21,7.21-.27.54-1.11,1.12-1.67,1.1-.55-.01-1.33-.64-1.59-1.2-1.49-3.12-2.83-6.32-4.26-9.47-.48-1.06-1.09-2.06-1.65-3.09-.14.03-.29.07-.43.1"/>
    <path d="m197.42,193.32c-2.46,0-4.92-.02-7.37,0-1.23.01-1.87-.41-1.9-1.77-.02-1.4.75-1.61,1.84-1.63,4.68-.06,9.37-.18,14.05-.16,2.29,0,3.91-2.84,2.44-4.7-.26-.33-.79-.63-1.2-.63-3.57-.03-7.15.19-10.7-.05-2.61-.18-4.92-1.21-6.12-3.95-.47-1.08-1.22-2.02-.78-3.25.6-1.67,1.36-3.28,3.03-4.17.59-.32,1.29-.62,1.94-.63,5.1-.08,10.2-.09,15.3-.13,1.17-.01,1.31.69,1.32,1.64,0,1.01-.16,1.75-1.39,1.74-4.22-.02-8.43.03-12.65-.04-1.3-.02-2.32.25-3.11,1.36-.69.97-.96,2.09-.29,2.95.51.66,1.58,1.2,2.42,1.23,3.52.14,7.05.02,10.57.1.89.02,1.81.32,2.65.65,1.83.71,2.53,2.33,2.63,4.08.23,4.02-.84,7.24-5.87,7.36-2.27.05-4.54,0-6.82.01Z"/>
    <path d="m232.98,193.33c-2.5,0-5,.02-7.51,0-.85,0-1.67-.11-1.8-1.27-.18-1.61.07-1.99,1.73-2.03,4.31-.08,8.62-.13,12.92-.17,1.73-.01,3.36-.12,4.14-2.06.7-1.77-.3-3.34-2.15-3.33-3.48,0-6.95,0-10.43-.01-2.26-.01-5-1.91-5.85-4-1.26-3.11-.43-5.75,2.45-7.51.56-.34,1.3-.55,1.96-.56,4.96-.1,9.91-.13,14.87-.18,1.06-.01,1.61.38,1.57,1.57-.04,1.12-.21,1.87-1.59,1.86-3.98-.02-7.96.02-11.94.05-1.14,0-2.24-.17-3.24.78-1.1,1.04-1.18,2.17-.7,3.4.42,1.08,1.4,1.35,2.5,1.34,3.52-.01,7.04-.04,10.56.02,3.84.06,5.81,3.13,5.23,6.72-.31,1.89-.69,3.79-2.74,4.64-.79.33-1.65.66-2.49.7-2.5.09-5,.03-7.51.03,0,.01,0,.02,0,.03Z"/>
    <path d="m365.59,193.31c-2.5,0-5.01,0-7.51,0-1.06,0-1.95-.16-1.94-1.56.01-1.3.58-1.78,1.87-1.79,4.54-.02,9.09-.13,13.63-.21,2.87-.05,4.33-2.37,2.94-4.69-.17-.28-.6-.58-.91-.59-3.66-.04-7.33.18-10.97-.1-2.59-.2-5.02-1.05-6.21-3.92-.44-1.07-1.17-2.07-.71-3.15.69-1.63,1.27-3.45,3.06-4.32.61-.3,1.29-.61,1.95-.63,5.05-.11,10.11-.15,15.16-.22,1.01-.01,1.4.48,1.36,1.47-.04,1,.04,1.99-1.43,1.99-4.4,0-8.81.08-13.21.03-1.31-.02-2.12.64-2.72,1.58-1.14,1.79.1,3.92,2.3,3.95,3.52.05,7.05,0,10.57.03,3.03.02,4.82,1.39,5.26,4.38.63,4.24-.62,6.41-3.76,7.49-.8.28-1.73.26-2.6.27-2.04.04-4.08.01-6.12.01v-.03Z"/>
    <path d="m343.09,185.12c.78-1.36.31-2.34-.45-3.37-.65-.89-1.03-1.98-1.66-2.88-.83-1.2-1.58-1.22-2.35,0-1.18,1.87-2.23,3.82-3.34,5.72-.39.68-.82,1.33-1.22,2-1.07,1.78-2.14,3.56-3.2,5.35-.89,1.51-2.63,1.92-4.46.91.64-1.15,1.25-2.32,1.91-3.45,2.16-3.7,4.33-7.39,6.53-11.07.99-1.66,2.07-3.27,3.11-4.9,1.22-1.91,2.78-1.93,3.94.05,3.03,5.18,6,10.39,9.02,15.57.51.88,1.17,1.67,1.72,2.52.28.44.48.93.74,1.45-3.48.57-4.4.66-5.53-2.27-.66-1.72-2.59-3.02-4.45-3.02-1.72,0-3.43.07-5.14-.02-.51-.02-1-.45-1.5-.68.37-.43.67-1.1,1.12-1.23,1.09-.32,2.26-.4,3.39-.54.63-.08,1.28-.09,1.81-.12Z"/>
    <path d="m272.13,182.77c0-3.01.04-6.02-.02-9.03-.02-1.23.49-1.6,1.66-1.59,4.91.04,9.82.01,14.73.01,1.81,0,2.53.96,1.84,2.63-.16.39-.92.75-1.41.77-3.01.11-6.02.13-9.03.17-.83.01-1.66.01-2.5.02-1.64.02-1.89.25-1.89,1.92-.01,2.36,0,4.72.02,7.09,0,1.16.01,2.31.02,3.47.02,1.3.58,1.88,1.97,1.82,3.79-.17,7.59-.22,11.39-.34,1.1-.03,1.59.39,1.58,1.55-.02,1.88-.11,2.08-2.02,2.09-4.96.02-9.91-.03-14.87,0-1.13,0-1.57-.4-1.55-1.55.05-3.01.02-6.02.02-9.03.02,0,.03,0,.05,0Z"/>
    <path d="m259.25,172.23c2.69,0,5.38-.01,8.07,0,.81,0,1.74-.16,1.75,1.17.01,1.98-.15,2.29-1.66,2.33-1.53.05-3.06.02-4.59.07-1.65.05-1.84.23-1.85,2.03-.03,4.54-.02,9.08-.02,13.62,0,1.7-1.33,2.57-2.79,1.71-.37-.22-.54-1.01-.55-1.54-.06-4.45-.06-8.9-.08-13.34-.01-2.49-.09-2.56-2.59-2.53-1.43.02-2.87.02-4.3-.03-1-.04-1.54-.55-1.38-1.62.15-.99.26-1.94,1.66-1.92,2.78.05,5.56.01,8.34.01,0,.01,0,.02,0,.03Z"/>
    <path d="m218.66,182.77c0,2.96-.05,5.92.02,8.88.03,1.26-.4,1.74-1.68,1.71-1.14-.03-1.79-.21-1.77-1.6.08-5.96.1-11.92.06-17.89,0-1.43.65-1.68,1.87-1.69,1.28-.01,1.54.61,1.52,1.72-.05,2.96-.02,5.92-.02,8.88h-.02Z"/>
    <path d="m283.98,181.14c1.58,0,3.15.03,4.73,0,1.26-.03,1.24.79,1.25,1.68,0,.91-.06,1.66-1.29,1.65-3.2-.04-6.4-.04-9.6,0-1.33.02-1.31-.79-1.33-1.74-.02-1,.2-1.59,1.37-1.55,1.62.06,3.24.02,4.87.02v-.04Z"/>
    <path d="m13.29,159.72H2.16c0-.07,0-.14,0-.21h11.12c0,.07,0,.14,0,.21Z"/>
  </g>
</svg>